<svg xmlns="http://www.w3.org/2000/svg" xmlns:xlink="http://www.w3.org/1999/xlink" version="1.1" x="0px" y="0px" viewBox="0 0 100 125" enable-background="new 0 0 100 100" xml:space="preserve"><path d="M76.838,92.096l-24.93-43.18c-0.061-0.105-0.139-0.193-0.217-0.282v-8.896h11.953c0.005,0,0.012,0,0.018,0  c0.772,0,1.397-0.625,1.397-1.396c0-0.308-0.101-0.593-0.268-0.824l-2.371-4.609l2.465-4.792c0.223-0.434,0.204-0.951-0.049-1.367  c-0.255-0.416-0.707-0.669-1.192-0.669H50.295c-0.771,0-1.397,0.625-1.397,1.396v8.525v2.34v10.292  c-0.077,0.089-0.157,0.177-0.216,0.282L23.634,92.301c-0.332,0.576-0.332,1.285,0,1.862c0.333,0.576,0.948,0.93,1.613,0.93h50.095  c0.007,0,0.015,0,0.02,0c1.028,0,1.862-0.833,1.862-1.861C77.224,92.805,77.079,92.411,76.838,92.096z M30.262,88.269l1.791,3.1  h-3.581L30.262,88.269z M32.415,84.544l1.855-3.214l5.254,9.103c0.347,0.597,0.972,0.931,1.616,0.931  c0.315,0,0.636-0.081,0.929-0.25c0.891-0.515,1.197-1.652,0.682-2.545l-6.329-10.965l1.854-3.214l5.254,9.101  c0.346,0.599,0.971,0.932,1.615,0.932c0.316,0,0.636-0.081,0.93-0.25c0.89-0.515,1.196-1.652,0.682-2.545l-6.33-10.964l1.855-3.213  l5.253,9.101c0.345,0.597,0.971,0.932,1.615,0.932c0.315,0,0.636-0.08,0.929-0.249c0.891-0.516,1.196-1.653,0.683-2.544  l-6.33-10.964l1.856-3.215l5.252,9.099c0.346,0.598,0.971,0.932,1.615,0.932c0.315,0,0.637-0.08,0.93-0.249  c0.891-0.516,1.195-1.653,0.682-2.546l-6.327-10.96l1.855-3.214l5.25,9.098c0.002,0.001,0.004,0.003,0.006,0.004l16.566,28.694  H36.354L32.415,84.544z M51.691,28.874h9.664l-1.747,3.396c-0.208,0.401-0.208,0.878,0,1.279l1.747,3.396h-9.664v-0.943V28.874z   M22.776,79.573V22.455c0-1.361,0.972-2.49,2.259-2.74c0.173-0.035,0.353-0.055,0.536-0.055h2.65c0.026,0,0.05,0.007,0.076,0.007  c0.024,0,0.044-0.006,0.067-0.006c1.2,0,2.214,0.759,2.61,1.822c0.14,0.299,0.224,0.63,0.224,0.983  c0,7.617,6.197,13.814,13.814,13.814c1.286,0,2.329,1.042,2.329,2.328c0,1.286-1.042,2.329-2.329,2.329  c-5.519,0-10.468-2.447-13.855-6.298v6.995h6.519c1.543,0,2.794,1.25,2.794,2.794v14.295c0,1.543-1.251,2.792-2.794,2.792  s-2.793-1.249-2.793-2.792V47.222h-6.519v32.352c0,1.542-1.251,2.793-2.794,2.793C24.027,82.366,22.776,81.115,22.776,79.573z   M25.26,13.143V9.106c0-2.227,1.807-4.035,4.035-4.035c2.229,0,4.035,1.808,4.035,4.035v4.037c0,2.228-1.807,4.035-4.035,4.035  C27.067,17.178,25.26,15.371,25.26,13.143z" fill="#FFDB6E"/></svg>
