<svg xmlns="http://www.w3.org/2000/svg" xmlns:xlink="http://www.w3.org/1999/xlink" version="1.1" x="0px" y="0px" viewBox="0 0 64 80" enable-background="new 0 0 64 64" xml:space="preserve"><g><path d="M61.43,26.469l-14.027-6.705c-0.837-0.4-1.796-0.4-2.633,0l-14.027,6.705c-1.054,0.504-1.736,1.585-1.736,2.753   c0,9.535,1.804,17.523,5.216,23.1c3.101,5.07,7.425,7.977,11.863,7.977c4.437,0,8.761-2.908,11.863-7.977   c3.412-5.577,5.216-13.565,5.216-23.1C63.166,28.054,62.485,26.973,61.43,26.469z M55.208,50.645   c-2.504,4.093-5.829,6.44-9.121,6.44c-3.293,0-6.617-2.347-9.12-6.44c-3.091-5.052-4.731-12.423-4.743-21.32l13.864-6.627   l13.864,6.627C59.938,38.221,58.299,45.592,55.208,50.645z" fill="#FFDB6E"/><path d="M46.087,25.656l-11.694,5.59c0.011,7.504,1.394,13.722,4.001,17.983c2.112,3.452,4.916,5.432,7.693,5.432   c2.777,0,5.581-1.98,7.693-5.432c2.607-4.262,3.99-10.479,4.001-17.983L46.087,25.656z M53.467,35.671   c-1.002,1.285-2.007,2.568-3.006,3.856c-1.626,2.096-3.245,4.199-4.875,6.293c-0.917,1.178-1.655,1.165-2.527-0.028   c-1.442-1.973-2.884-3.946-4.324-5.921c-0.487-0.668-0.481-1.357,0.006-1.809c0.486-0.451,1.185-0.407,1.804,0.129   c1.058,0.917,2.109,1.842,3.165,2.76l0.532,0.474l0.554-0.529c2.224-2.239,4.453-4.473,6.696-6.693   c0.242-0.239,0.555-0.467,0.875-0.553c0.529-0.142,0.997,0.066,1.272,0.565C53.923,34.73,53.818,35.221,53.467,35.671z" fill="#FFDB6E"/><g><path d="M60.99,3.7H3.01c-1.2,0-2.177,0.966-2.177,2.177v43.071c0,1.211,0.977,2.177,2.177,2.177h25.825    c-0.542-1.189-1.03-2.442-1.465-3.759H4.38V12.939h55.229v7.954l3.557,1.699V5.877C63.167,4.666,62.19,3.7,60.99,3.7z     M6.355,10.475c-1.189,0-2.156-0.966-2.156-2.156s0.966-2.156,2.156-2.156S8.511,7.13,8.511,8.319S7.544,10.475,6.355,10.475z     M12.217,10.475c-1.2,0-2.166-0.966-2.166-2.156s0.966-2.156,2.166-2.156c1.189,0,2.156,0.966,2.156,2.156    S13.406,10.475,12.217,10.475z M18.068,10.475c-1.189,0-2.156-0.966-2.156-2.156s0.966-2.156,2.156-2.156    c1.2,0,2.166,0.966,2.166,2.156S19.268,10.475,18.068,10.475z M57.454,10.475H31.49c-1.2,0-2.166-0.966-2.166-2.156    s0.966-2.156,2.166-2.156h25.963c1.189,0,2.156,0.966,2.156,2.156S58.643,10.475,57.454,10.475z" fill="#FFDB6E"/></g></g></svg>